<svg id="visual" viewBox="0 0 960 540" width="960" height="540" xmlns="http://www.w3.org/2000/svg" xmlns:xlink="http://www.w3.org/1999/xlink" version="1.1"><rect x="0" y="0" width="960" height="540" fill="#001220"></rect><defs><linearGradient id="grad1_0" x1="43.8%" y1="100%" x2="100%" y2="0%"><stop offset="14.444444444444446%" stop-color="#001220" stop-opacity="1"></stop><stop offset="85.55555555555554%" stop-color="#001220" stop-opacity="1"></stop></linearGradient></defs><defs><linearGradient id="grad2_0" x1="0%" y1="100%" x2="56.3%" y2="0%"><stop offset="14.444444444444446%" stop-color="#001220" stop-opacity="1"></stop><stop offset="85.55555555555554%" stop-color="#001220" stop-opacity="1"></stop></linearGradient></defs><g transform="translate(960, 540)"><path d="M-378 0C-348 -30.6 -317.9 -61.2 -311 -101C-304.1 -140.9 -320.2 -190.1 -305.8 -222.2C-291.4 -254.3 -246.4 -269.4 -210.4 -289.6C-174.5 -309.9 -147.6 -335.3 -114 -350.9C-80.5 -366.5 -40.2 -372.3 0 -378L0 0Z" fill="#FBAE3C"></path></g><g transform="translate(0, 0)"><path d="M378 0C359.2 36.6 340.4 73.1 323.4 105.1C306.3 137 291.1 164.3 277.5 201.6C263.8 238.9 251.7 286.1 222.2 305.8C192.6 325.5 145.6 317.8 105.7 325.3C65.7 332.7 32.9 355.4 0 378L0 0Z" fill="#FBAE3C"></path></g></svg>