<?xml version="1.0" standalone="no"?>
<!DOCTYPE svg PUBLIC "-//W3C//DTD SVG 20010904//EN"
 "http://www.w3.org/TR/2001/REC-SVG-20010904/DTD/svg10.dtd">
<svg version="1.0" xmlns="http://www.w3.org/2000/svg"
 width="512.000000pt" height="512.000000pt" viewBox="0 0 512.000000 512.000000"
 preserveAspectRatio="xMidYMid meet">
<metadata>
Created by potrace 1.14, written by Peter Selinger 2001-2017
</metadata>
<g transform="translate(0.000000,512.000000) scale(0.100000,-0.100000)"
fill="#000000" stroke="none">
<path d="M2758 5083 c-10 -3 -18 -8 -18 -12 0 -4 -6 -8 -14 -8 -18 0 -84 -31
-91 -43 -4 -6 -11 -8 -16 -5 -5 4 -9 1 -9 -4 0 -6 -7 -11 -15 -11 -8 0 -15 -5
-15 -11 0 -5 -4 -8 -9 -5 -4 3 -19 -6 -31 -19 -13 -14 -29 -25 -36 -25 -6 0
-15 -7 -18 -16 -4 -9 -9 -14 -12 -11 -3 3 -13 -2 -23 -11 -9 -9 -41 -37 -70
-62 -88 -75 -100 -88 -94 -94 4 -3 -1 -6 -10 -6 -9 0 -17 -7 -17 -16 0 -8 -4
-12 -10 -9 -5 3 -10 3 -10 -2 0 -4 -23 -33 -50 -63 -27 -30 -50 -62 -51 -70 0
-10 -2 -11 -6 -2 -2 6 -9 10 -14 6 -5 -3 -9 0 -9 6 0 6 -4 8 -10 5 -5 -3 -10
3 -10 14 0 13 -7 21 -17 21 -9 0 -14 3 -10 6 3 3 -5 18 -19 33 -112 119 -155
161 -164 161 -5 0 -10 5 -10 11 0 5 -4 7 -10 4 -5 -3 -10 -2 -10 3 0 5 -6 9
-12 9 -7 1 -30 4 -50 7 -21 3 -38 1 -38 -4 0 -5 -7 -7 -16 -3 -9 3 -19 2 -23
-4 -3 -5 -28 -25 -55 -44 -28 -18 -57 -41 -67 -49 -31 -28 -63 -50 -72 -50 -4
0 -6 -4 -3 -9 3 -5 -6 -12 -19 -15 -14 -4 -23 -11 -20 -16 3 -6 2 -10 -2 -10
-8 0 -113 -98 -113 -105 0 -2 -12 -17 -27 -33 -52 -54 -83 -92 -83 -101 0 -6
-10 -17 -22 -25 -12 -9 -19 -16 -15 -16 5 0 1 -7 -7 -16 -9 -8 -14 -20 -11
-25 4 -5 1 -9 -4 -9 -6 0 -11 -7 -11 -16 0 -8 -4 -13 -9 -10 -5 3 -14 -8 -21
-24 -7 -17 -16 -30 -21 -30 -5 0 -9 -9 -9 -20 0 -11 -5 -20 -11 -20 -5 0 -8
-4 -4 -9 3 -6 -3 -14 -12 -20 -10 -6 -15 -11 -11 -11 4 0 -6 -25 -23 -56 -16
-31 -26 -60 -23 -65 3 -5 0 -9 -5 -9 -6 0 -11 -7 -11 -15 0 -8 -5 -15 -11 -15
-5 0 -8 -4 -4 -9 3 -5 1 -12 -5 -16 -6 -4 -8 -11 -5 -16 4 -5 2 -9 -3 -9 -5 0
-9 -6 -9 -12 -1 -23 -8 -42 -20 -56 -7 -7 -10 -19 -7 -26 3 -8 -2 -26 -11 -40
-10 -14 -13 -26 -9 -26 5 0 1 -5 -9 -11 -10 -6 -46 -12 -80 -14 -91 -6 -146
-13 -159 -21 -7 -4 -8 -3 -4 4 5 9 1 10 -16 4 -13 -5 -40 -8 -60 -8 -21 1 -38
-1 -38 -5 0 -3 -17 -6 -38 -6 -64 -1 -102 -7 -102 -16 0 -5 -7 -6 -16 -3 -8 3
-13 2 -10 -3 6 -8 -21 -26 -35 -23 -4 1 -15 -8 -24 -18 -10 -11 -23 -20 -28
-20 -6 0 -25 -11 -43 -25 -18 -14 -36 -25 -39 -25 -4 0 -26 -14 -51 -30 -24
-17 -44 -27 -44 -23 0 4 -5 0 -11 -9 -5 -10 -16 -18 -23 -18 -8 0 -19 -7 -26
-15 -7 -8 -21 -15 -32 -15 -10 0 -16 -5 -13 -10 3 -5 1 -10 -4 -10 -7 0 -11
-24 -11 -57 0 -32 -1 -65 -1 -73 -1 -8 -1 -62 0 -120 0 -58 0 -112 0 -120 -1
-8 -1 -62 0 -120 0 -58 0 -112 0 -120 -1 -8 -1 -62 0 -120 0 -58 0 -112 0
-120 -1 -17 0 -214 1 -275 1 -40 27 -74 58 -75 6 0 12 -5 12 -11 0 -5 4 -7 10
-4 5 3 10 1 10 -5 0 -6 5 -8 10 -5 6 3 10 1 10 -5 0 -6 5 -8 10 -5 6 3 10 2
10 -2 0 -5 16 -15 36 -22 19 -7 38 -19 40 -26 3 -8 12 -11 20 -8 8 3 14 0 14
-7 0 -7 6 -10 14 -7 8 3 17 0 20 -8 2 -7 21 -19 40 -26 20 -7 36 -17 36 -22 0
-4 4 -5 10 -2 5 3 10 1 10 -5 0 -6 4 -9 9 -5 6 3 19 -5 30 -17 12 -12 21 -18
21 -14 0 5 7 3 15 -4 8 -6 18 -9 24 -6 5 3 11 0 14 -8 5 -11 -2 -13 -31 -10
-20 3 -39 8 -42 12 -3 4 -14 7 -25 7 -11 0 -32 5 -46 12 -15 7 -40 15 -55 17
-16 3 -44 10 -63 16 -19 5 -38 7 -44 3 -6 -3 -7 -1 -4 4 10 16 -18 24 -33 10
-10 -9 -11 -9 -5 2 6 11 4 13 -8 8 -9 -3 -17 -2 -19 3 -2 5 -14 10 -28 12 -14
2 -36 10 -49 17 -17 9 -21 10 -16 1 6 -9 2 -9 -14 -1 l-21 12 0 -1091 0 -1090
2558 0 2557 0 -1 343 c-1 188 -2 342 -4 342 -1 0 -3 8 -5 18 -2 10 1 14 7 11
6 -4 9 -1 6 7 -4 13 -55 35 -102 44 -12 2 -21 4 -21 5 0 1 -7 3 -15 5 -8 1
-41 10 -74 20 -32 9 -66 19 -75 20 -9 2 -16 4 -16 5 0 1 -17 6 -47 13 -7 1
-19 6 -25 10 -7 5 -13 5 -13 1 0 -3 -6 -2 -12 3 -7 5 -20 9 -28 8 -8 0 -17 3
-20 7 -3 4 -20 8 -38 10 -18 1 -32 5 -32 8 0 4 -6 7 -12 8 -7 0 -24 3 -38 7
-14 3 -29 7 -35 8 -5 2 -16 6 -22 10 -7 5 -13 5 -13 1 0 -3 -7 -1 -15 6 -8 7
-15 9 -15 4 0 -5 -5 -2 -10 6 -8 13 -10 13 -10 0 0 -11 -3 -11 -12 -2 -7 7
-20 12 -30 12 -10 0 -18 6 -18 13 0 8 -4 7 -10 -3 -6 -10 -10 -11 -10 -3 0 7
-3 12 -7 11 -5 -1 -25 4 -46 11 -21 7 -44 10 -52 7 -8 -3 -21 4 -30 17 -9 13
-11 23 -5 25 6 2 7 9 4 14 -4 7 -2 8 4 4 6 -4 18 5 26 21 8 15 15 21 16 13 0
-9 3 -11 8 -4 8 12 73 40 85 36 4 -1 7 3 7 9 0 5 5 7 10 4 6 -3 10 -1 10 5 0
6 5 8 10 5 6 -3 10 -1 10 6 0 7 3 10 6 7 6 -7 139 46 160 63 8 7 14 6 19 -2 6
-8 10 -7 17 5 5 9 15 16 22 16 7 0 36 11 64 25 29 14 57 25 63 25 6 0 23 6 37
14 38 20 96 41 105 38 4 -1 7 3 7 9 0 5 4 8 9 4 5 -3 12 -1 16 5 4 6 11 8 16
5 5 -4 9 -2 9 3 0 8 16 15 60 27 30 8 50 18 50 26 0 6 5 7 11 4 5 -4 18 0 27
8 16 14 17 56 17 484 l0 469 -26 31 c-14 17 -35 36 -48 42 -12 7 -19 17 -15
24 4 7 4 9 -1 5 -4 -4 -20 5 -35 20 -15 15 -53 50 -84 77 -31 28 -80 73 -110
100 -95 88 -104 95 -117 95 -11 0 -11 3 1 10 12 8 12 10 1 10 -7 0 -24 11 -37
25 -13 14 -26 25 -30 25 -3 0 -26 20 -50 44 -23 24 -45 42 -47 40 -3 -3 -7 6
-9 20 -3 16 0 27 9 30 8 3 12 10 9 15 -3 5 1 14 9 21 7 6 11 18 8 26 -3 8 -1
14 4 14 5 0 9 8 9 18 1 9 4 29 7 44 3 15 2 30 -2 32 -4 3 -6 20 -5 38 1 18 -2
39 -8 45 -6 7 -6 13 -1 13 10 0 9 125 -2 190 -12 74 -14 104 -5 115 5 6 11 22
14 35 3 14 7 36 10 50 3 14 9 75 12 135 3 61 8 113 11 118 2 4 1 7 -4 7 -9 0
-9 98 0 107 3 3 2 13 -3 22 -14 26 -23 55 -21 65 1 4 -3 14 -10 22 -6 7 -8 18
-4 24 3 5 1 10 -4 10 -6 0 -11 7 -11 15 0 8 -5 15 -12 15 -6 0 -8 3 -5 7 4 3
2 12 -4 20 -6 7 -9 13 -6 13 2 0 -13 19 -34 41 -22 23 -39 46 -39 51 0 5 -4 7
-9 4 -5 -3 -15 1 -22 10 -10 12 -57 42 -79 50 -3 1 -15 5 -27 9 -13 4 -23 12
-23 17 0 5 -4 6 -10 3 -5 -3 -16 -3 -22 2 -18 11 -138 12 -138 1 0 -5 -8 -12
-17 -15 -20 -8 -41 -24 -102 -79 -44 -40 -81 -50 -89 -24 -2 5 -8 8 -13 4 -5
-3 -9 -2 -9 3 0 4 -26 22 -58 38 -31 17 -60 34 -63 39 -4 5 -12 5 -19 1 -8 -5
-11 -4 -7 2 6 9 -19 27 -31 23 -6 -2 -98 53 -104 64 -11 16 -10 28 2 21 5 -3
3 7 -5 21 -8 15 -12 31 -9 36 3 4 1 8 -3 8 -5 0 -9 8 -10 18 -2 35 -14 77 -23
80 -5 2 -7 9 -4 16 3 7 1 23 -4 37 -5 13 -10 27 -11 32 0 4 -7 20 -15 36 -9
16 -12 31 -9 35 4 3 1 6 -6 6 -7 0 -10 4 -7 9 4 5 3 11 -1 13 -5 1 -17 21 -28
42 -27 53 -56 81 -107 104 -47 20 -99 36 -110 34 -5 -1 -8 2 -8 6 0 9 -8 11
-55 14 -14 1 -25 6 -25 10 0 4 -11 8 -25 8 -14 0 -25 5 -25 11 0 8 -4 9 -13 0
-8 -6 -16 -8 -19 -6 -5 6 -30 12 -83 22 -16 3 -38 9 -49 15 -14 8 -17 7 -11
-3 6 -9 3 -10 -11 -5 -10 4 -37 10 -59 12 -22 2 -49 5 -60 7 -11 2 -28 2 -37
0z"/>
</g>
</svg>
